<?xml version="1.0" encoding="utf-8"?>
<!-- Generator: Adobe Illustrator 16.0.0, SVG Export Plug-In . SVG Version: 6.00 Build 0)  -->
<!DOCTYPE svg PUBLIC "-//W3C//DTD SVG 1.1//EN" "http://www.w3.org/Graphics/SVG/1.1/DTD/svg11.dtd">
<svg version="1.1" xmlns="http://www.w3.org/2000/svg" xmlns:xlink="http://www.w3.org/1999/xlink" x="0px" y="0px"
	 width="807.612px" height="250.285px" viewBox="0 0 807.612 250.285" enable-background="new 0 0 807.612 250.285"
	 xml:space="preserve">
<g id="border">
	<rect x="1" y="1" display="none" opacity="0" fill="#FFFFFF" width="805.612" height="248.284"/>
	
		<rect x="1" y="1" opacity="0.5" fill="#03A9F4" stroke="#FFFFFF" stroke-width="0.25" stroke-miterlimit="10" width="805.612" height="248.285"/>
</g>
<g id="area">
	
		<rect x="1" y="1" opacity="0.9" fill="none" stroke="#FFFFFF" stroke-width="0.25" stroke-miterlimit="10" width="81" height="32"/>
	
		<rect x="82" y="1" opacity="0.9" fill="none" stroke="#FFFFFF" stroke-width="0.25" stroke-miterlimit="10" width="196.625" height="32"/>
	
		<rect x="278.625" y="1" opacity="0.9" fill="none" stroke="#FFFFFF" stroke-width="0.25" stroke-miterlimit="10" width="82.25" height="32"/>
	
		<rect x="82" y="206.284" opacity="0.9" fill="none" stroke="#FFFFFF" stroke-width="0.25" stroke-miterlimit="10" width="77" height="43"/>
	
		<rect x="159" y="206.284" opacity="0.9" fill="none" stroke="#FFFFFF" stroke-width="0.25" stroke-miterlimit="10" width="41" height="43"/>
	
		<rect x="200" y="206.284" opacity="0.9" fill="none" stroke="#FFFFFF" stroke-width="0.25" stroke-miterlimit="10" width="37.625" height="43"/>
	
		<rect x="237.625" y="206.284" opacity="0.9" fill="none" stroke="#FFFFFF" stroke-width="0.25" stroke-miterlimit="10" width="41" height="43"/>
	
		<rect x="278.625" y="206.284" opacity="0.9" fill="none" stroke="#FFFFFF" stroke-width="0.25" stroke-miterlimit="10" width="82.25" height="43"/>
	
		<rect x="360.875" y="206.284" opacity="0.9" fill="none" stroke="#FFFFFF" stroke-width="0.25" stroke-miterlimit="10" width="39.375" height="43"/>
	
		<rect x="195" y="33" opacity="0.9" fill="none" stroke="#FFFFFF" stroke-width="0.25" stroke-miterlimit="10" width="83.625" height="161"/>
	
		<rect x="278.625" y="33" opacity="0.9" fill="none" stroke="#FFFFFF" stroke-width="0.25" stroke-miterlimit="10" width="82.25" height="161"/>
	
		<rect x="195" y="194" opacity="0.9" fill="none" stroke="#FFFFFF" stroke-width="0.25" stroke-miterlimit="10" width="83.625" height="12.284"/>
	
		<rect x="278.625" y="194" opacity="0.9" fill="none" stroke="#FFFFFF" stroke-width="0.25" stroke-miterlimit="10" width="82.25" height="12.284"/>
	
		<rect x="360.875" y="1" opacity="0.9" fill="none" stroke="#FFFFFF" stroke-width="0.25" stroke-miterlimit="10" width="39.125" height="19.667"/>
	
		<rect x="479.167" y="1" opacity="0.9" fill="none" stroke="#FFFFFF" stroke-width="0.25" stroke-miterlimit="10" width="163.5" height="21.667"/>
	
		<rect x="681.667" y="1" opacity="0.9" fill="none" stroke="#FFFFFF" stroke-width="0.25" stroke-miterlimit="10" width="65.166" height="20.167"/>
	
		<rect x="762.667" y="1" opacity="0.9" fill="none" stroke="#FFFFFF" stroke-width="0.25" stroke-miterlimit="10" width="43.945" height="20.167"/>
	
		<rect x="681.667" y="21.167" opacity="0.9" fill="none" stroke="#FFFFFF" stroke-width="0.25" stroke-miterlimit="10" width="56" height="22.5"/>
	
		<rect x="681.667" y="43.667" opacity="0.9" fill="none" stroke="#FFFFFF" stroke-width="0.25" stroke-miterlimit="10" width="56" height="31.833"/>
	
		<rect x="681.667" y="75.501" opacity="0.9" fill="none" stroke="#FFFFFF" stroke-width="0.25" stroke-miterlimit="10" width="56" height="28.666"/>
	
		<rect x="681.667" y="104.167" opacity="0.9" fill="none" stroke="#FFFFFF" stroke-width="0.25" stroke-miterlimit="10" width="56" height="22.666"/>
	
		<rect x="681.667" y="126.833" opacity="0.9" fill="none" stroke="#FFFFFF" stroke-width="0.25" stroke-miterlimit="10" width="56" height="40.833"/>
	
		<rect x="681.667" y="167.666" opacity="0.9" fill="none" stroke="#FFFFFF" stroke-width="0.25" stroke-miterlimit="10" width="56" height="23.5"/>
	
		<rect x="737.667" y="21.167" opacity="0.9" fill="none" stroke="#FFFFFF" stroke-width="0.25" stroke-miterlimit="10" width="40.333" height="36.999"/>
	
		<rect x="778" y="21.167" opacity="0.9" fill="none" stroke="#FFFFFF" stroke-width="0.25" stroke-miterlimit="10" width="28.612" height="36.999"/>
	
		<rect x="776" y="191.166" opacity="0.9" fill="none" stroke="#FFFFFF" stroke-width="0.25" stroke-miterlimit="10" width="23.667" height="16.164"/>
	
		<rect x="681" y="206.165" opacity="0.9" fill="none" stroke="#FFFFFF" stroke-width="0.25" stroke-miterlimit="10" width="63.5" height="18.667"/>
	
		<rect x="681" y="224.832" opacity="0.9" fill="none" stroke="#FFFFFF" stroke-width="0.25" stroke-miterlimit="10" width="27" height="24.452"/>
	
		<rect x="708" y="224.832" opacity="0.9" fill="none" stroke="#FFFFFF" stroke-width="0.25" stroke-miterlimit="10" width="36.5" height="24.452"/>
	
		<rect x="763.167" y="230" opacity="0.9" fill="none" stroke="#FFFFFF" stroke-width="0.25" stroke-miterlimit="10" width="43.445" height="19.285"/>
	
		<rect x="772.5" y="207.33" opacity="0.9" fill="none" stroke="#FFFFFF" stroke-width="0.25" stroke-miterlimit="10" width="34.112" height="22.67"/>
	<polyline opacity="0.9" fill="none" stroke="#FFFFFF" stroke-width="0.25" stroke-miterlimit="10" points="776,58.166 776,123.832 
		771,123.832 771,191.166 776,191.166 737.667,191.166 	"/>
	
		<rect x="480.667" y="205.832" opacity="0.9" fill="none" stroke="#FFFFFF" stroke-width="0.25" stroke-miterlimit="10" width="81.333" height="43.452"/>
	
		<rect x="562" y="205.832" opacity="0.9" fill="none" stroke="#FFFFFF" stroke-width="0.25" stroke-miterlimit="10" width="80.833" height="43.452"/>
	
		<rect x="1" y="33" opacity="0.9" fill="none" stroke="#FFFFFF" stroke-width="0.25" stroke-miterlimit="10" width="42.333" height="173.284"/>
	<polyline opacity="0.9" fill="none" stroke="#FFFFFF" stroke-width="0.25" stroke-miterlimit="10" points="62.333,190.667 
		62.333,206.284 43.333,206.284 	"/>
	
		<rect x="82" y="33" opacity="0.9" fill="none" stroke="#FFFFFF" stroke-width="0.25" stroke-miterlimit="10" width="113" height="173.284"/>
</g>
<g id="entrance">
</g>
<g id="asset">
	<path opacity="0.9" fill="none" stroke="#FFFFFF" stroke-width="0.25" stroke-miterlimit="10" d="M360.9,195.563h4.063
		c0,2.245-1.817,4.063-4.063,4.063v-0.063c2.245,0,4.063,1.817,4.063,4.063H360.9"/>
	<path opacity="0.9" fill="none" stroke="#FFFFFF" stroke-width="0.25" stroke-miterlimit="10" d="M278.9,195.563h4.063
		c0,2.245-1.817,4.063-4.063,4.063v-0.063c2.245,0,4.063,1.817,4.063,4.063H278.9"/>
	<path opacity="0.9" fill="none" stroke="#FFFFFF" stroke-width="0.25" stroke-miterlimit="10" d="M194.9,195.563h4.063
		c0,2.245-1.817,4.063-4.063,4.063v-0.063c2.245,0,4.063,1.817,4.063,4.063H194.9"/>
	<path opacity="0.9" fill="none" stroke="#FFFFFF" stroke-width="0.25" stroke-miterlimit="10" d="M81.96,195.563h4.063
		c0,2.245-1.817,4.063-4.063,4.063v-0.063c2.245,0,4.063,1.817,4.063,4.063H81.96"/>
	<path opacity="0.9" fill="none" stroke="#FFFFFF" stroke-width="0.25" stroke-miterlimit="10" d="M81.96,219.563h4.063
		c0,2.245-1.817,4.063-4.063,4.063v-0.063c2.245,0,4.063,1.817,4.063,4.063H81.96"/>
	<path opacity="0.9" fill="none" stroke="#FFFFFF" stroke-width="0.25" stroke-miterlimit="10" d="M81.96,231.563h4.063
		c0,2.245-1.817,4.063-4.063,4.063v-0.063c2.245,0,4.063,1.817,4.063,4.063H81.96"/>
	<path opacity="0.9" fill="none" stroke="#FFFFFF" stroke-width="0.25" stroke-miterlimit="10" d="M400.26,214.563h4.063
		c0,2.245-1.817,4.063-4.063,4.063v-0.063c2.245,0,4.063,1.817,4.063,4.063h-4.063"/>
	<path opacity="0.9" fill="none" stroke="#FFFFFF" stroke-width="0.25" stroke-miterlimit="10" d="M400.26,231.563h4.063
		c0,2.245-1.817,4.063-4.063,4.063v-0.063c2.245,0,4.063,1.817,4.063,4.063h-4.063"/>
	<path opacity="0.9" fill="none" stroke="#FFFFFF" stroke-width="0.25" stroke-miterlimit="10" d="M480.96,221.563h4.063
		c0,2.245-1.817,4.063-4.063,4.063v-0.063c2.245,0,4.063,1.817,4.063,4.063h-4.063"/>
	<path opacity="0.9" fill="none" stroke="#FFFFFF" stroke-width="0.25" stroke-miterlimit="10" d="M744.46,227.563h4.063
		c0,2.245-1.817,4.063-4.063,4.063v-0.063c2.245,0,4.063,1.817,4.063,4.063h-4.063"/>
	<path opacity="0.9" fill="none" stroke="#FFFFFF" stroke-width="0.25" stroke-miterlimit="10" d="M763.168,231.563h4.063
		c0,2.245-1.817,4.063-4.063,4.063v-0.063c2.245,0,4.063,1.817,4.063,4.063h-4.063"/>
	<path opacity="0.9" fill="none" stroke="#FFFFFF" stroke-width="0.25" stroke-miterlimit="10" d="M776.022,203.625h-4.063
		c0-2.245,1.817-4.063,4.063-4.063v0.063c-2.245,0-4.063-1.817-4.063-4.063h4.063"/>
	<path opacity="0.9" fill="none" stroke="#FFFFFF" stroke-width="0.25" stroke-miterlimit="10" d="M736.022,191.361v4.063
		c-2.245,0-4.063-1.817-4.063-4.063h0.063c0,2.245-1.817,4.063-4.063,4.063v-4.063"/>
	<path opacity="0.9" fill="none" stroke="#FFFFFF" stroke-width="0.25" stroke-miterlimit="10" d="M771.022,191.361v4.063
		c-2.245,0-4.063-1.817-4.063-4.063h0.063c0,2.245-1.817,4.063-4.063,4.063v-4.063"/>
	<path opacity="0.9" fill="none" stroke="#FFFFFF" stroke-width="0.25" stroke-miterlimit="10" d="M727.96,167.624v-4.063
		c2.245,0,4.063,1.817,4.063,4.063h-0.063c0-2.245,1.817-4.063,4.063-4.063v4.063"/>
	<path opacity="0.9" fill="none" stroke="#FFFFFF" stroke-width="0.25" stroke-miterlimit="10" d="M727.96,126.624v-4.063
		c2.245,0,4.063,1.817,4.063,4.063h-0.063c0-2.245,1.817-4.063,4.063-4.063v4.063"/>
	<path opacity="0.9" fill="none" stroke="#FFFFFF" stroke-width="0.25" stroke-miterlimit="10" d="M727.96,103.824v-4.063
		c2.245,0,4.063,1.817,4.063,4.063h-0.063c0-2.245,1.817-4.063,4.063-4.063v4.063"/>
	<path opacity="0.9" fill="none" stroke="#FFFFFF" stroke-width="0.25" stroke-miterlimit="10" d="M727.96,75.424v-4.063
		c2.245,0,4.063,1.817,4.063,4.063h-0.063c0-2.245,1.817-4.063,4.063-4.063v4.063"/>
	<path opacity="0.9" fill="none" stroke="#FFFFFF" stroke-width="0.25" stroke-miterlimit="10" d="M727.96,43.424v-4.063
		c2.245,0,4.063,1.817,4.063,4.063h-0.063c0-2.245,1.817-4.063,4.063-4.063v4.063"/>
	<path opacity="0.9" fill="none" stroke="#FFFFFF" stroke-width="0.25" stroke-miterlimit="10" d="M727.96,20.824v-4.063
		c2.245,0,4.063,1.817,4.063,4.063h-0.063c0-2.245,1.817-4.063,4.063-4.063v4.063"/>
	<path opacity="0.9" fill="none" stroke="#FFFFFF" stroke-width="0.25" stroke-miterlimit="10" d="M737.96,20.824v-4.063
		c2.245,0,4.063,1.817,4.063,4.063h-0.063c0-2.245,1.817-4.063,4.063-4.063v4.063"/>
	<path opacity="0.9" fill="none" stroke="#FFFFFF" stroke-width="0.25" stroke-miterlimit="10" d="M767.96,57.824v-4.063
		c2.245,0,4.063,1.817,4.063,4.063h-0.063c0-2.245,1.817-4.063,4.063-4.063v4.063"/>
	<path opacity="0.9" fill="none" stroke="#FFFFFF" stroke-width="0.25" stroke-miterlimit="10" d="M737.96,86.562h4.063
		c0,2.245-1.817,4.063-4.063,4.063v-0.063c2.245,0,4.063,1.817,4.063,4.063h-4.063"/>
	<path opacity="0.9" fill="none" stroke="#FFFFFF" stroke-width="0.25" stroke-miterlimit="10" d="M737.96,109.562h4.063
		c0,2.245-1.817,4.063-4.063,4.063v-0.063c2.245,0,4.063,1.817,4.063,4.063h-4.063"/>
	<path opacity="0.9" fill="none" stroke="#FFFFFF" stroke-width="0.25" stroke-miterlimit="10" d="M777.96,49.562h4.063
		c0,2.245-1.817,4.063-4.063,4.063v-0.063c2.245,0,4.063,1.817,4.063,4.063h-4.063"/>
	<path opacity="0.9" fill="none" stroke="#FFFFFF" stroke-width="0.25" stroke-miterlimit="10" d="M746.96,6.562h4.063
		c0,2.245-1.817,4.063-4.063,4.063v-0.063c2.245,0,4.063,1.817,4.063,4.063h-4.063"/>
	<path opacity="0.9" fill="none" stroke="#FFFFFF" stroke-width="0.25" stroke-miterlimit="10" d="M195.022,206.562v4.063
		c-2.245,0-4.063-1.817-4.063-4.063h0.063c0,2.245-1.817,4.063-4.063,4.063v-4.063"/>
	<path opacity="0.9" fill="none" stroke="#FFFFFF" stroke-width="0.25" stroke-miterlimit="10" d="M251.022,206.562v4.063
		c-2.245,0-4.063-1.817-4.063-4.063h0.063c0,2.245-1.817,4.063-4.063,4.063v-4.063"/>
	<path opacity="0.9" fill="none" stroke="#FFFFFF" stroke-width="0.25" stroke-miterlimit="10" d="M377.96,206.225v-4.063
		c2.245,0,4.063,1.817,4.063,4.063h-0.063c0-2.245,1.817-4.063,4.063-4.063v4.063"/>
	<path opacity="0.9" fill="none" stroke="#FFFFFF" stroke-width="0.25" stroke-miterlimit="10" d="M430.96,205.624v-4.063
		c2.245,0,4.063,1.817,4.063,4.063h-0.063c0-2.245,1.817-4.063,4.063-4.063v4.063"/>
	<path opacity="0.9" fill="none" stroke="#FFFFFF" stroke-width="0.25" stroke-miterlimit="10" d="M320.96,206.324v-4.063
		c2.245,0,4.063,1.817,4.063,4.063h-0.063c0-2.245,1.817-4.063,4.063-4.063v4.063"/>
	<path opacity="0.9" fill="none" stroke="#FFFFFF" stroke-width="0.25" stroke-miterlimit="10" d="M304.022,194v4.063
		c-2.245,0-4.063-1.817-4.063-4.063h0.063c0,2.245-1.817,4.063-4.063,4.063V194"/>
	<path opacity="0.9" fill="none" stroke="#FFFFFF" stroke-width="0.25" stroke-miterlimit="10" d="M345.022,194v4.063
		c-2.245,0-4.063-1.817-4.063-4.063h0.063c0,2.245-1.817,4.063-4.063,4.063V194"/>
	<path opacity="0.9" fill="none" stroke="#FFFFFF" stroke-width="0.25" stroke-miterlimit="10" d="M617.96,205.624v-4.063
		c2.245,0,4.063,1.817,4.063,4.063h-0.063c0-2.245,1.817-4.063,4.063-4.063v4.063"/>
	<path opacity="0.9" fill="none" stroke="#FFFFFF" stroke-width="0.25" stroke-miterlimit="10" d="M399.96,12.562h4.063
		c0,2.245-1.817,4.063-4.063,4.063v-0.063c2.245,0,4.063,1.817,4.063,4.063h-4.063"/>
	<path opacity="0.9" fill="none" stroke="#FFFFFF" stroke-width="0.25" stroke-miterlimit="10" d="M278.76,23.562h4.063
		c0,2.245-1.817,4.063-4.063,4.063v-0.063c2.245,0,4.063,1.817,4.063,4.063h-4.063"/>
	<path opacity="0.9" fill="none" stroke="#FFFFFF" stroke-width="0.25" stroke-miterlimit="10" d="M82.022,18.624H77.96
		c0-2.245,1.817-4.063,4.063-4.063v0.063c-2.245,0-4.063-1.817-4.063-4.063h4.063"/>
	<path opacity="0.9" fill="none" stroke="#FFFFFF" stroke-width="0.25" stroke-miterlimit="10" d="M23.96,206.024v-4.063
		c2.245,0,4.063,1.817,4.063,4.063H27.96c0-2.245,1.817-4.063,4.063-4.063v4.063"/>
	<path opacity="0.9" fill="none" stroke="#FFFFFF" stroke-width="0.25" stroke-miterlimit="10" d="M296.96,32.824v-4.063
		c2.245,0,4.063,1.817,4.063,4.063h-0.063c0-2.245,1.817-4.063,4.063-4.063v4.063"/>
	<path opacity="0.9" fill="none" stroke="#FFFFFF" stroke-width="0.25" stroke-miterlimit="10" d="M249.022,20.562v4.063
		c-2.245,0-4.063-1.817-4.063-4.063h0.063c0,2.245-1.817,4.063-4.063,4.063v-4.063"/>
	<path opacity="0.9" fill="none" stroke="#FFFFFF" stroke-width="0.25" stroke-miterlimit="10" d="M1.016,0.813v19.896h29.965
		v-2.037c2.315,0,4.188-1.803,4.188-4.031h-4.188V1.125H1.1"/>
	<path opacity="0.9" fill="none" stroke="#FFFFFF" stroke-width="0.25" stroke-miterlimit="10" d="M82,20.593l-6.978,0.031v-4.063
		c-2.245,0-4.063,1.817-4.063,4.063h0.063c0-2.245-1.817-4.063-4.063-4.063v4.063v-0.031l-24.078,0.116v-2.037
		c2.315,0,4.188-1.803,4.188-4.031h-4.188V0.813"/>
	
		<line opacity="0.9" fill="none" stroke="#FFFFFF" stroke-width="0.25" stroke-miterlimit="10" x1="62.25" y1="20.593" x2="62.25" y2="1"/>
	<polyline opacity="0.9" fill="none" stroke="#FFFFFF" stroke-width="0.25" stroke-miterlimit="10" points="119.875,1 
		119.875,20.593 82,20.593 	"/>
	<polyline opacity="0.9" fill="none" stroke="#FFFFFF" stroke-width="0.25" stroke-miterlimit="10" points="169.5,1 169.5,20.593 
		119.875,20.593 	"/>
	<polyline opacity="0.9" fill="none" stroke="#FFFFFF" stroke-width="0.25" stroke-miterlimit="10" points="200.875,1 
		200.875,20.593 169.5,20.593 	"/>
	<path opacity="0.9" fill="none" stroke="#FFFFFF" stroke-width="0.25" stroke-miterlimit="10" d="M194.96,22.972h4.063
		c0,2.245-1.817,4.063-4.063,4.063v-0.063c2.245,0,4.063,1.817,4.063,4.063h-4.063L195,33V20.593"/>
	<polyline opacity="0.9" fill="none" stroke="#FFFFFF" stroke-width="0.25" stroke-miterlimit="10" points="232.5,1 232.5,20.593 
		278.625,20.593 	"/>
	<polyline opacity="0.9" fill="none" stroke="#FFFFFF" stroke-width="0.25" stroke-miterlimit="10" points="319.25,1 319.25,20.667 
		360.875,20.667 	"/>
	
		<rect x="321.5" y="6.5" opacity="0.9" fill="#C8E6C9" stroke="#FFFFFF" stroke-width="0.25" stroke-miterlimit="10" width="7.625" height="11.375"/>
	
		<rect x="350.5" y="6.5" opacity="0.9" fill="#C8E6C9" stroke="#FFFFFF" stroke-width="0.25" stroke-miterlimit="10" width="7.625" height="11.375"/>
	<polyline opacity="0.9" fill="none" stroke="#FFFFFF" stroke-width="0.25" stroke-miterlimit="10" points="440.375,20.624 
		440.375,1 419.875,1 419.875,20.624 479.167,20.624 	"/>
	
		<line opacity="0.9" fill="none" stroke="#FFFFFF" stroke-width="0.25" stroke-miterlimit="10" x1="763.167" y1="230" x2="763.167" y2="207.33"/>
	<polyline opacity="0.9" fill="none" stroke="#FFFFFF" stroke-width="0.25" stroke-miterlimit="10" points="681,228.375 
		676.625,228.375 676.75,205.832 	"/>
	<polyline opacity="0.9" fill="none" stroke="#FFFFFF" stroke-width="0.25" stroke-miterlimit="10" points="681,231.125 
		676.75,231.125 676.75,249.284 	"/>
	
		<rect x="420.375" y="230.75" opacity="0.9" fill="none" stroke="#FFFFFF" stroke-width="0.25" stroke-miterlimit="10" width="20" height="18.535"/>
	
		<rect x="448.375" y="230.75" opacity="0.9" fill="none" stroke="#FFFFFF" stroke-width="0.25" stroke-miterlimit="10" width="16.375" height="18.534"/>
	
		<rect x="420.375" y="205.832" opacity="0.9" fill="none" stroke="#FFFFFF" stroke-width="0.25" stroke-miterlimit="10" width="20" height="24.918"/>
	
		<rect x="448.375" y="205.832" opacity="0.9" fill="none" stroke="#FFFFFF" stroke-width="0.25" stroke-miterlimit="10" width="16.375" height="24.918"/>
	
		<line opacity="0.9" fill="none" stroke="#FFFFFF" stroke-width="0.25" stroke-miterlimit="10" x1="360.875" y1="230.75" x2="400.25" y2="230.75"/>
	<polyline opacity="0.9" fill="none" stroke="#FFFFFF" stroke-width="0.25" stroke-miterlimit="10" points="120.5,249.284 
		120.5,230.375 147.75,230.25 82,230.5 	"/>
	<path opacity="0.9" fill="none" stroke="#FFFFFF" stroke-width="0.25" stroke-miterlimit="10" d="M1.016,249.485v-19.896h29.965
		v2.037c2.315,0,4.188,1.805,4.188,4.031h-4.188v13.516H1.1"/>
	<path opacity="0.9" fill="none" stroke="#FFFFFF" stroke-width="0.25" stroke-miterlimit="10" d="M52.833,229.389v19.896l9.5,0.001
		v-19.896h-2.341v0.361v-4.188c-2.228,0-4.031,1.873-4.031,4.188v-0.361H42v19.896"/>
	<path opacity="0.9" fill="none" stroke="#FFFFFF" stroke-width="0.25" stroke-miterlimit="10" d="M464.883,213.641
		c2.315,0,4.188,1.805,4.188,4.031h-4.188"/>
	<path opacity="0.9" fill="none" stroke="#FFFFFF" stroke-width="0.25" stroke-miterlimit="10" d="M775.883,82.64
		c2.315,0,4.188,1.805,4.188,4.031h-4.188"/>
	<polygon opacity="0.9" fill="#C8E6C9" stroke="#FFFFFF" stroke-width="0.25" stroke-miterlimit="10" points="4.833,7.417 
		7.333,7.417 7.333,5 16.333,5 16.333,7.417 18.583,7.417 18.583,18.667 4.833,18.667 	"/>
	
		<line opacity="0.9" fill="none" stroke="#FFFFFF" stroke-width="0.25" stroke-miterlimit="10" x1="4.833" y1="7.417" x2="18.583" y2="18.667"/>
	
		<line opacity="0.9" fill="none" stroke="#FFFFFF" stroke-width="0.25" stroke-miterlimit="10" x1="18.583" y1="7.417" x2="4.833" y2="18.667"/>
	<polygon opacity="0.9" fill="#C8E6C9" stroke="#FFFFFF" stroke-width="0.25" stroke-miterlimit="10" points="18.583,243.251 
		16.083,243.251 16.083,245.668 7.083,245.668 7.083,243.251 4.833,243.251 4.833,232.001 18.583,232.001 	"/>
	
		<line opacity="0.9" fill="none" stroke="#FFFFFF" stroke-width="0.25" stroke-miterlimit="10" x1="18.583" y1="243.251" x2="4.833" y2="232.001"/>
	
		<line opacity="0.9" fill="none" stroke="#FFFFFF" stroke-width="0.25" stroke-miterlimit="10" x1="4.833" y1="243.251" x2="18.583" y2="232.001"/>
	<polygon opacity="0.9" fill="#C8E6C9" stroke="#FFFFFF" stroke-width="0.25" stroke-miterlimit="10" points="479.584,243.251 
		477.084,243.251 477.084,245.668 468.084,245.668 468.084,243.251 465.834,243.251 465.834,232.001 479.584,232.001 	"/>
	
		<line opacity="0.9" fill="none" stroke="#FFFFFF" stroke-width="0.25" stroke-miterlimit="10" x1="479.584" y1="243.251" x2="465.834" y2="232.001"/>
	
		<line opacity="0.9" fill="none" stroke="#FFFFFF" stroke-width="0.25" stroke-miterlimit="10" x1="465.834" y1="243.251" x2="479.584" y2="232.001"/>
	<polygon opacity="0.9" fill="#C8E6C9" stroke="#FFFFFF" stroke-width="0.25" stroke-miterlimit="10" points="464.834,7.417 
		467.334,7.417 467.334,5 476.334,5 476.334,7.417 478.584,7.417 478.584,18.667 464.834,18.667 	"/>
	
		<line opacity="0.9" fill="none" stroke="#FFFFFF" stroke-width="0.25" stroke-miterlimit="10" x1="464.834" y1="7.417" x2="478.584" y2="18.667"/>
	
		<line opacity="0.9" fill="none" stroke="#FFFFFF" stroke-width="0.25" stroke-miterlimit="10" x1="478.584" y1="7.417" x2="464.834" y2="18.667"/>
	<polyline opacity="0.9" fill="#C8E6C9" stroke="#FFFFFF" stroke-width="0.25" stroke-miterlimit="10" points="92,231.563 
		100.583,231.563 97.417,238.417 92,238.417 92,230.25 	"/>
	
		<line opacity="0.9" fill="none" stroke="#FFFFFF" stroke-width="0.25" stroke-miterlimit="10" x1="89.583" y1="234.99" x2="99" y2="234.99"/>
	<polyline opacity="0.9" fill="#C8E6C9" stroke="#FFFFFF" stroke-width="0.25" stroke-miterlimit="10" points="390.168,232.063 
		381.584,232.063 384.752,238.917 390.168,238.917 390.168,230.75 	"/>
	
		<line opacity="0.9" fill="none" stroke="#FFFFFF" stroke-width="0.25" stroke-miterlimit="10" x1="392.584" y1="235.99" x2="383.168" y2="235.99"/>
	<polyline opacity="0.9" fill="#C8E6C9" stroke="#FFFFFF" stroke-width="0.25" stroke-miterlimit="10" points="390.168,19.104 
		381.584,19.104 384.752,12.25 390.168,12.25 390.168,20.417 	"/>
	
		<line opacity="0.9" fill="none" stroke="#FFFFFF" stroke-width="0.25" stroke-miterlimit="10" x1="391.584" y1="15.677" x2="383.177" y2="15.658"/>
	<polyline opacity="0.9" fill="#C8E6C9" stroke="#FFFFFF" stroke-width="0.25" stroke-miterlimit="10" points="92,19.104 
		100.584,19.104 97.416,12.25 92,12.25 92,20.417 	"/>
	
		<line opacity="0.9" fill="none" stroke="#FFFFFF" stroke-width="0.25" stroke-miterlimit="10" x1="90.584" y1="15.677" x2="98.991" y2="15.658"/>
	<g>
		<path opacity="0.9" fill="none" stroke="#FFFFFF" stroke-width="0.25" stroke-miterlimit="10" d="M763.822,195.563h4.063
			c0,2.245-1.817,4.063-4.063,4.063v-0.063c2.245,0,4.063,1.817,4.063,4.063h-4.063"/>
		<path opacity="0.9" fill="none" stroke="#FFFFFF" stroke-width="0.25" stroke-miterlimit="10" d="M763.822,219.563h4.063
			c0,2.245-1.817,4.063-4.063,4.063v-0.063c2.245,0,4.063,1.817,4.063,4.063h-4.063"/>
		<path opacity="0.9" fill="none" stroke="#FFFFFF" stroke-width="0.25" stroke-miterlimit="10" d="M763.822,231.563h4.063
			c0,2.245-1.817,4.063-4.063,4.063v-0.063c2.245,0,4.063,1.817,4.063,4.063h-4.063"/>
		<polyline opacity="0.9" fill="none" stroke="#FFFFFF" stroke-width="0.25" stroke-miterlimit="10" points="801.737,1.001 
			801.737,20.594 763.862,20.594 		"/>
		<polyline opacity="0.9" fill="none" stroke="#FFFFFF" stroke-width="0.25" stroke-miterlimit="10" points="802.362,249.285 
			802.362,230.376 829.612,230.251 763.862,230.501 		"/>
		<polyline opacity="0.9" fill="#C8E6C9" stroke="#FFFFFF" stroke-width="0.25" stroke-miterlimit="10" points="773.862,231.563 
			782.446,231.563 779.278,238.418 773.862,238.418 773.862,230.251 		"/>
		
			<line opacity="0.9" fill="none" stroke="#FFFFFF" stroke-width="0.25" stroke-miterlimit="10" x1="771.446" y1="234.991" x2="780.862" y2="234.991"/>
		<polyline opacity="0.9" fill="#C8E6C9" stroke="#FFFFFF" stroke-width="0.25" stroke-miterlimit="10" points="773.862,19.105 
			782.446,19.105 779.278,12.251 773.862,12.251 773.862,20.418 		"/>
		
			<line opacity="0.9" fill="none" stroke="#FFFFFF" stroke-width="0.25" stroke-miterlimit="10" x1="772.446" y1="15.678" x2="780.854" y2="15.659"/>
	</g>
</g>
</svg>
